<?xml version="1.0" standalone="no"?>
<!DOCTYPE svg PUBLIC "-//W3C//DTD SVG 20010904//EN"
 "http://www.w3.org/TR/2001/REC-SVG-20010904/DTD/svg10.dtd">
<svg version="1.0" xmlns="http://www.w3.org/2000/svg"
 width="460.000000pt" height="460.000000pt" viewBox="0 0 460.000000 460.000000"
 preserveAspectRatio="xMidYMid meet">
<metadata>
Created by potrace 1.14, written by Peter Selinger 2001-2017
</metadata>
<g transform="translate(0.000000,460.000000) scale(0.100000,-0.100000)"
fill="#000000" stroke="none">
<path d="M2056 4450 c-19 -6 -19 -7 -1 -14 10 -3 22 -3 28 3 12 12 -4 20 -27
11z"/>
<path d="M2471 4446 c11 -9 69 -14 69 -6 0 6 -16 10 -37 10 -20 0 -34 -2 -32
-4z"/>
<path d="M1948 4375 c-4 -39 5 -65 16 -46 12 19 45 12 57 -11 8 -14 14 -18 17
-10 6 19 19 14 26 -10 6 -23 6 -23 22 -3 11 14 18 16 21 8 3 -7 11 -13 19 -13
8 0 14 -4 14 -10 0 -5 9 -10 20 -10 17 0 20 7 20 45 0 45 0 45 -34 45 -19 0
-38 5 -41 11 -4 6 -13 8 -21 5 -7 -3 -16 -1 -19 4 -4 6 -19 10 -36 10 -16 0
-29 5 -29 10 0 6 -11 10 -24 10 -20 0 -25 -6 -28 -35z"/>
<path d="M2610 4400 c0 -5 5 -10 10 -10 6 0 10 5 10 10 0 6 -4 10 -10 10 -5 0
-10 -4 -10 -10z"/>
<path d="M2712 4398 c-18 -18 -15 -35 7 -41 13 -3 18 0 15 8 -3 7 -1 16 5 20
6 3 11 10 11 16 0 13 -24 11 -38 -3z"/>
<path d="M2560 4365 c0 -16 6 -25 16 -25 11 0 14 5 10 16 -3 9 -6 20 -6 25 0
5 -4 9 -10 9 -5 0 -10 -11 -10 -25z"/>
<path d="M2634 4363 c3 -16 16 -22 16 -8 0 3 0 10 0 15 0 6 -4 10 -9 10 -5 0
-8 -8 -7 -17z"/>
<path d="M2495 4350 c3 -5 8 -10 11 -10 2 0 4 5 4 10 0 6 -5 10 -11 10 -5 0
-7 -4 -4 -10z"/>
<path d="M2680 4352 c0 -11 41 -34 48 -28 3 4 -3 13 -14 21 -21 16 -34 19 -34
7z"/>
<path d="M2280 4300 c0 -16 5 -30 10 -30 6 0 10 14 10 30 0 17 -4 30 -10 30
-5 0 -10 -13 -10 -30z"/>
<path d="M1850 4270 c0 -43 3 -50 20 -50 11 0 20 -4 20 -10 0 -5 9 -10 20 -10
21 0 40 -27 40 -58 0 -10 9 -27 20 -37 11 -10 20 -31 20 -47 0 -29 23 -40 34
-15 5 10 7 10 12 0 3 -7 11 -13 17 -13 6 0 19 -7 29 -16 16 -16 18 -16 24 0 3
9 12 16 19 16 7 0 16 6 19 13 5 10 7 10 12 0 12 -26 24 -12 24 27 0 37 2 40
28 41 19 1 13 4 -20 11 -41 9 -48 14 -48 34 0 13 5 24 10 24 6 0 10 9 10 20 0
15 -7 20 -25 20 -14 0 -25 5 -25 10 0 6 -11 10 -24 10 -14 0 -31 7 -40 15 -8
8 -31 15 -50 15 -20 0 -36 5 -36 10 0 6 -13 10 -29 10 -16 0 -31 6 -35 15 -3
8 -15 15 -26 15 -17 0 -20 -6 -20 -50z"/>
<path d="M2730 4300 c0 -5 9 -10 20 -10 11 0 20 -7 20 -15 0 -8 -4 -15 -9 -15
-5 0 -7 -9 -4 -20 4 -16 0 -20 -20 -20 -14 0 -29 5 -32 10 -3 6 -10 10 -16 10
-5 0 -9 -4 -9 -10 0 -5 7 -10 16 -10 8 0 12 -4 9 -10 -4 -6 7 -10 24 -10 17 0
31 5 31 10 0 6 9 10 20 10 11 0 20 5 20 10 0 6 5 10 10 10 6 0 10 -7 10 -15 0
-16 34 -38 44 -28 9 10 7 73 -3 73 -5 0 -12 -8 -15 -17 -11 -27 -31 2 -35 52
-1 6 -5 4 -10 -4 -8 -12 -14 -13 -36 -3 -32 15 -35 15 -35 2z"/>
<path d="M2670 4260 c0 -6 7 -10 15 -10 8 0 15 2 15 4 0 2 -7 6 -15 10 -8 3
-15 1 -15 -4z"/>
<path d="M2440 4236 c0 -10 9 -16 25 -16 14 0 25 5 25 10 0 6 -4 10 -9 10 -5
0 -16 3 -25 6 -11 4 -16 1 -16 -10z"/>
<path d="M2537 4243 c-12 -11 -8 -23 8 -23 8 0 15 7 15 15 0 16 -12 20 -23 8z"/>
<path d="M2610 4235 c0 -8 5 -15 10 -15 6 0 10 7 10 15 0 8 -4 15 -10 15 -5 0
-10 -7 -10 -15z"/>
<path d="M2307 4213 c-4 -3 -7 -13 -7 -22 1 -13 3 -13 11 2 11 19 8 33 -4 20z"/>
<path d="M2660 4211 c0 -5 5 -13 10 -16 6 -3 10 -2 10 4 0 5 -4 13 -10 16 -5
3 -10 2 -10 -4z"/>
<path d="M2780 4186 c6 -8 18 -12 26 -9 23 9 16 23 -12 23 -22 0 -24 -2 -14
-14z"/>
<path d="M2660 4160 c0 -6 -30 -10 -71 -10 -44 0 -68 -4 -64 -10 4 -6 -31 -10
-97 -10 -113 0 -178 -8 -178 -21 0 -12 347 -12 354 0 11 17 66 19 75 2 8 -13
14 -13 50 4 48 21 58 55 15 55 -14 0 -23 -4 -19 -10 4 -6 -5 -10 -20 -10 -15
0 -24 4 -20 10 3 6 -1 10 -9 10 -9 0 -16 -4 -16 -10z"/>
<path d="M2631 4101 c-8 -6 -9 -11 -3 -15 6 -3 14 -1 17 5 9 14 2 20 -14 10z"/>
<path d="M2663 4073 c-19 -7 3 -43 26 -43 12 0 23 -11 29 -29 9 -25 8 -29 -4
-24 -8 3 -13 12 -10 19 3 8 -1 14 -9 14 -18 0 -19 -17 -2 -53 13 -29 37 -36
37 -11 0 11 5 14 18 9 9 -4 26 -10 37 -12 16 -5 18 -3 8 8 -7 7 -13 22 -12 34
0 19 1 19 9 -2 13 -31 23 -29 37 8 10 26 9 34 -4 48 -12 11 -17 13 -21 3 -2
-6 -10 -12 -17 -12 -7 0 -15 -6 -18 -12 -2 -8 -8 -9 -13 -4 -5 5 -4 11 4 13 6
3 12 16 12 29 0 22 -4 24 -47 23 -27 0 -54 -3 -60 -6z m157 -53 c0 -5 -4 -10
-10 -10 -5 0 -10 5 -10 10 0 6 5 10 10 10 6 0 10 -4 10 -10z"/>
<path d="M2280 4045 c0 -14 5 -25 10 -25 6 0 10 11 10 25 0 14 -4 25 -10 25
-5 0 -10 -11 -10 -25z"/>
<path d="M1970 4020 c0 -5 5 -10 11 -10 5 0 7 5 4 10 -3 6 -8 10 -11 10 -2 0
-4 -4 -4 -10z"/>
<path d="M2229 4017 c6 -8 8 -17 4 -20 -3 -4 -1 -7 5 -7 7 0 12 9 12 20 0 12
-7 20 -16 20 -13 0 -14 -3 -5 -13z"/>
<path d="M2350 4020 c0 -5 7 -10 16 -10 8 0 12 5 9 10 -3 6 -10 10 -16 10 -5
0 -9 -4 -9 -10z"/>
<path d="M2862 4010 c4 -34 34 -38 40 -5 5 26 -6 35 -15 13 -4 -10 -8 -9 -17
2 -9 12 -10 10 -8 -10z"/>
<path d="M2933 3988 c-6 -7 -13 -19 -17 -25 -12 -21 18 -5 32 17 13 22 1 28
-15 8z"/>
<path d="M1730 3960 c0 -16 -4 -30 -10 -30 -5 0 -10 -9 -10 -20 0 -11 5 -20
10 -20 6 0 10 4 10 9 0 5 19 9 42 9 23 1 37 -2 31 -6 -8 -5 -9 -13 -3 -22 6
-8 10 -11 10 -6 0 5 7 3 15 -4 11 -9 19 -10 26 -3 14 14 49 4 49 -13 0 -8 9
-14 20 -14 13 0 20 7 20 19 0 11 3 26 6 35 4 9 1 16 -6 16 -22 0 -80 32 -74
41 3 5 1 9 -5 9 -5 0 -12 -6 -15 -12 -5 -10 -7 -10 -12 0 -3 6 -16 12 -29 12
-12 0 -25 7 -29 15 -3 8 -15 15 -26 15 -16 0 -20 -7 -20 -30z"/>
<path d="M2655 3964 c0 -13 6 -24 13 -24 6 0 12 6 12 14 0 7 -6 18 -12 24 -10
8 -13 4 -13 -14z"/>
<path d="M2875 3920 c3 -5 8 -10 11 -10 2 0 4 5 4 10 0 6 -5 10 -11 10 -5 0
-7 -4 -4 -10z"/>
<path d="M2678 3895 c-6 -27 15 -65 25 -48 8 13 -3 73 -13 73 -4 0 -10 -11
-12 -25z"/>
<path d="M1640 3900 c0 -5 -7 -10 -15 -10 -16 0 -16 -44 1 -220 5 -56 27 -90
59 -90 21 0 45 -24 45 -45 0 -19 23 -45 39 -45 6 0 11 -4 11 -10 0 -5 11 -12
25 -16 14 -3 25 -10 25 -15 0 -5 10 -9 23 -9 12 0 35 -11 50 -26 33 -30 47
-24 47 21 0 18 6 36 13 39 6 3 3 5 -8 4 -41 -2 -55 12 -55 58 0 24 5 44 10 44
6 0 10 14 10 31 0 17 -4 28 -10 24 -6 -4 -10 8 -10 29 0 20 5 36 10 36 15 0
12 60 -4 76 -8 8 -22 14 -31 14 -8 0 -18 7 -21 15 -4 8 -17 15 -30 15 -13 0
-24 5 -24 10 0 6 -15 10 -34 10 -21 0 -36 6 -40 15 -3 8 -15 15 -26 15 -11 0
-20 3 -20 8 0 4 -9 13 -20 20 -12 7 -20 8 -20 2z"/>
<path d="M2965 3888 c7 -37 45 -52 45 -18 0 11 -7 20 -15 20 -8 0 -15 5 -15
10 0 6 -4 10 -9 10 -6 0 -8 -10 -6 -22z"/>
<path d="M2767 3866 c-10 -14 -13 -26 -8 -26 13 0 33 28 29 41 -2 6 -12 0 -21
-15z"/>
<path d="M2837 3883 c-4 -3 -7 -16 -6 -27 0 -12 3 -16 5 -9 3 7 12 9 20 6 9
-3 14 2 14 16 0 20 -19 28 -33 14z"/>
<path d="M2890 3875 c0 -12 28 -35 44 -35 3 0 6 11 6 25 0 20 -5 25 -25 25
-15 0 -25 -6 -25 -15z"/>
<path d="M3040 3869 c0 -11 5 -17 10 -14 6 3 10 13 10 21 0 8 -4 14 -10 14 -5
0 -10 -9 -10 -21z"/>
<path d="M3046 3824 c-4 -9 -4 -19 -1 -22 2 -3 7 3 11 12 4 9 4 19 1 22 -2 3
-7 -3 -11 -12z"/>
<path d="M2030 3780 c19 -13 30 -13 30 0 0 6 -10 10 -22 10 -19 0 -20 -2 -8
-10z"/>
<path d="M2665 3620 c3 -5 13 -10 21 -10 8 0 14 5 14 10 0 6 -9 10 -21 10 -11
0 -17 -4 -14 -10z"/>
<path d="M2870 3610 c13 -8 13 -10 -2 -10 -10 0 -18 -4 -18 -10 0 -6 -32 -10
-75 -10 -48 0 -75 -4 -75 -11 0 -6 9 -13 20 -16 11 -3 20 -9 20 -14 0 -5 14
-9 30 -9 17 0 30 4 30 9 0 14 61 19 66 6 3 -7 15 -12 27 -11 17 1 23 8 26 31
3 26 4 28 11 10 8 -18 9 -17 9 6 1 14 -5 26 -12 26 -7 0 -26 3 -42 7 -22 5
-26 4 -15 -4z"/>
<path d="M1990 3471 c0 -10 78 -6 88 4 3 3 -16 5 -41 5 -26 0 -47 -4 -47 -9z"/>
<path d="M2655 3460 c-9 -27 1 -39 25 -33 25 7 26 25 1 40 -17 11 -21 9 -26
-7z"/>
<path d="M2260 3439 c0 -13 7 -19 23 -18 18 1 18 2 4 6 -17 4 -17 6 -2 17 15
10 14 12 -4 13 -15 1 -21 -4 -21 -18z"/>
<path d="M2160 3430 c0 -5 5 -10 10 -10 6 0 10 5 10 10 0 6 -4 10 -10 10 -5 0
-10 -4 -10 -10z"/>
<path d="M2211 3414 c0 -11 3 -14 6 -6 3 7 2 16 -1 19 -3 4 -6 -2 -5 -13z"/>
<path d="M2332 3410 c0 -14 2 -19 5 -12 2 6 2 18 0 25 -3 6 -5 1 -5 -13z"/>
<path d="M2018 3413 c-27 -2 -48 -9 -48 -14 0 -6 5 -7 10 -4 6 4 10 -17 10
-56 0 -55 -3 -64 -27 -85 -32 -27 -40 -29 -45 -12 -4 10 -10 10 -29 1 -23 -11
-23 -12 -2 -12 26 -1 40 -20 23 -31 -10 -6 -10 -12 4 -25 14 -14 22 -15 41 -7
26 12 35 7 35 -20 0 -19 15 -24 24 -9 3 5 20 14 36 20 18 6 28 6 25 1 -4 -6
-1 -10 5 -10 6 0 8 -4 5 -10 -3 -5 2 -10 12 -10 10 0 14 -4 8 -8 -5 -4 -11
-13 -13 -21 -2 -10 4 -12 23 -7 21 5 25 3 25 -15 0 -30 6 -21 13 19 6 28 4 32
-14 32 -11 0 -17 5 -14 10 3 6 1 10 -4 10 -6 0 -11 9 -11 21 0 11 5 17 10 14
6 -4 11 32 12 99 0 58 1 112 2 119 1 13 -37 16 -116 10z m-68 -223 c0 -5 -7
-10 -15 -10 -8 0 -15 5 -15 10 0 6 7 10 15 10 8 0 15 -4 15 -10z m90 0 c0 -5
-4 -10 -10 -10 -5 0 -10 5 -10 10 0 6 5 10 10 10 6 0 10 -4 10 -10z"/>
<path d="M2666 3242 c-2 -4 15 -21 39 -37 49 -33 55 -44 25 -52 -20 -5 -29
-43 -10 -43 6 0 10 -7 10 -15 0 -18 -27 -20 -33 -2 -2 6 -8 9 -12 5 -7 -7 17
-38 30 -38 9 0 35 27 35 36 0 4 -8 13 -17 20 -17 12 -17 13 -1 14 9 0 20 -4
23 -10 3 -5 14 -10 23 -10 15 0 15 2 2 10 -13 8 -13 10 1 10 9 0 22 7 29 15 7
8 24 15 39 16 23 1 22 2 -8 9 -32 8 -54 27 -46 40 2 3 -5 7 -16 7 -18 2 -19 0
-7 -15 7 -9 17 -20 23 -24 6 -5 5 -12 -3 -20 -9 -9 -12 -9 -12 5 0 9 -5 17
-11 17 -6 0 -25 16 -43 35 -33 35 -50 42 -60 27z"/>
<path d="M1838 3233 c24 -10 12 -32 -20 -35 -32 -3 -32 -3 -7 -9 36 -8 67 15
49 36 -7 8 -18 15 -24 14 -7 0 -6 -2 2 -6z"/>
<path d="M1660 3190 c0 -5 5 -10 10 -10 6 0 10 5 10 10 0 6 -4 10 -10 10 -5 0
-10 -4 -10 -10z"/>
<path d="M1741 3176 c22 -23 39 -26 39 -5 0 5 -7 9 -15 9 -8 0 -15 5 -15 10 0
6 -7 10 -16 10 -13 0 -11 -5 7 -24z"/>
<path d="M2660 3194 c0 -11 28 -33 34 -27 13 13 5 33 -14 33 -11 0 -20 -3 -20
-6z"/>
<path d="M2870 3190 c0 -5 5 -10 10 -10 6 0 10 5 10 10 0 6 -4 10 -10 10 -5 0
-10 -4 -10 -10z"/>
<path d="M1615 3169 c-10 -15 3 -25 16 -12 7 7 7 13 1 17 -6 3 -14 1 -17 -5z"/>
<path d="M1686 3172 c-7 -11 34 -46 42 -36 4 4 1 9 -5 11 -7 3 -13 11 -13 19
0 15 -16 19 -24 6z"/>
<path d="M1850 3165 c0 -10 -11 -15 -35 -15 -19 0 -35 -4 -35 -10 0 -5 -7 -10
-15 -10 -8 0 -15 -4 -15 -10 0 -5 7 -10 15 -10 8 0 15 5 15 10 0 6 9 10 20 10
29 0 70 21 70 37 0 7 -4 13 -10 13 -5 0 -10 -7 -10 -15z"/>
<path d="M2920 3165 c0 -8 -5 -15 -11 -15 -6 0 -17 -6 -25 -14 -7 -8 -23 -12
-34 -9 -20 5 -70 -36 -70 -58 0 -18 38 -9 43 11 3 11 9 20 14 20 5 0 9 -9 9
-20 0 -11 -4 -20 -9 -20 -4 0 -17 -9 -29 -20 -15 -13 -25 -17 -33 -10 -7 5
-15 7 -18 3 -12 -11 -8 -51 6 -56 10 -4 10 -6 0 -6 -15 -1 -18 -31 -4 -31 5 0
11 7 15 15 4 11 13 14 33 9 16 -4 30 -11 31 -16 2 -4 8 -8 13 -8 5 0 18 -9 29
-20 16 -16 17 -20 5 -20 -8 0 -15 5 -15 10 0 6 -9 10 -20 10 -11 0 -20 5 -20
10 0 14 -42 12 -62 -4 -21 -15 -24 -40 -5 -33 6 2 11 10 10 16 -2 6 8 11 22
11 29 0 32 -12 9 -39 -17 -19 -52 -18 -66 3 -5 7 -8 7 -8 1 0 -18 60 -67 75
-61 9 3 15 0 15 -9 0 -21 9 -19 31 8 23 27 24 47 3 47 -11 0 -15 -6 -12 -17 4
-13 -1 -18 -19 -18 -26 0 -30 19 -9 41 17 16 56 19 56 4 0 -5 11 -10 25 -10
16 0 25 -6 25 -15 0 -8 -7 -15 -15 -15 -8 0 -15 -4 -15 -10 0 -20 27 -9 41 16
12 23 11 27 -3 38 -11 8 -15 20 -11 34 4 15 1 22 -9 22 -24 0 -68 24 -68 38 0
6 -9 12 -20 12 -24 0 -25 6 -6 26 21 21 38 18 31 -6 -9 -27 12 -26 36 2 11 11
22 18 26 15 3 -4 -4 -16 -17 -27 -27 -23 -21 -51 9 -43 12 3 21 1 21 -6 0 -6
7 -11 15 -11 8 0 15 5 15 10 0 6 9 10 20 10 11 0 20 -5 20 -11 0 -6 -7 -9 -15
-5 -9 3 -15 0 -15 -9 0 -8 -4 -15 -10 -15 -5 0 -10 -7 -10 -15 0 -8 7 -15 15
-15 8 0 15 -4 15 -10 0 -5 9 -10 20 -10 11 0 20 5 20 10 0 6 7 10 15 10 8 0
15 7 15 15 0 8 -7 15 -15 15 -8 0 -15 -7 -15 -15 0 -8 -9 -15 -20 -15 -26 0
-26 17 1 25 12 4 18 13 15 20 -3 10 2 12 20 9 29 -5 84 45 84 76 0 11 5 20 10
20 6 0 10 -7 10 -15 0 -9 9 -15 25 -15 14 0 25 -4 25 -10 0 -5 -15 -10 -34
-10 -28 0 -35 -4 -40 -25 -4 -16 -13 -25 -26 -25 -23 0 -26 -10 -8 -28 6 -6 8
-15 4 -19 -4 -4 -11 -1 -16 7 -6 8 -10 11 -10 5 0 -5 4 -16 9 -24 7 -10 12
-10 30 5 11 10 21 25 21 32 0 7 6 20 14 28 17 16 56 19 56 4 0 -5 6 -10 14
-10 21 0 76 -52 76 -72 0 -10 -4 -18 -10 -18 -17 0 -12 -57 6 -64 29 -11 34
-6 34 35 0 24 4 38 10 34 6 -3 10 3 10 14 0 12 -4 21 -9 21 -5 0 -13 9 -16 20
-4 11 -11 18 -16 15 -5 -4 -9 -1 -9 5 0 6 -4 9 -9 6 -5 -3 -12 5 -15 19 -4 14
-11 25 -16 25 -6 0 -10 11 -10 25 0 18 -5 25 -19 25 -10 0 -21 7 -25 15 -3 8
-13 15 -21 15 -9 0 -14 4 -11 8 6 10 -59 48 -89 54 -11 1 -23 7 -26 11 -3 5
-20 -5 -37 -22 -17 -17 -35 -31 -41 -31 -6 0 -11 -9 -11 -20 0 -11 5 -20 10
-20 6 0 10 5 10 10 0 6 6 10 13 10 7 0 17 10 22 23 11 25 71 40 63 15 -3 -7
-13 -15 -24 -17 -10 -2 -26 -12 -35 -22 -9 -11 -21 -19 -28 -19 -6 0 -11 -7
-11 -15 0 -9 9 -15 25 -15 14 0 25 6 25 13 0 7 9 18 20 25 17 10 23 10 35 -2
21 -21 18 -45 -7 -67 -28 -23 -48 -24 -48 -3 0 11 -6 15 -19 11 -18 -4 -51 23
-51 43 0 6 -10 10 -22 11 -13 0 -17 3 -10 6 6 2 12 9 12 14 0 6 9 19 20 31 22
24 26 38 10 38 -5 0 -10 -6 -10 -14 0 -9 -7 -12 -20 -9 -11 3 -20 8 -20 12 0
4 9 13 20 21 21 15 27 40 10 40 -5 0 -10 -7 -10 -15z m-29 -68 c-1 -4 -1 -17
-1 -30 0 -16 -6 -23 -21 -24 -17 -2 -19 1 -10 10 6 6 11 22 11 35 0 13 5 22
11 20 6 -2 10 -7 10 -11z m219 -27 c0 -5 -7 -10 -15 -10 -8 0 -15 5 -15 10 0
6 7 10 15 10 8 0 15 -4 15 -10z m-170 -90 c0 -5 -4 -10 -10 -10 -5 0 -10 5
-10 10 0 6 5 10 10 10 6 0 10 -4 10 -10z"/>
<path d="M1640 3140 c0 -5 9 -10 19 -10 11 0 21 -6 24 -12 2 -7 8 -10 12 -6
10 9 -19 38 -39 38 -9 0 -16 -4 -16 -10z"/>
<path d="M1868 3136 c-24 -18 -23 -23 7 -30 14 -4 25 -11 25 -16 0 -6 16 -10
35 -10 19 0 35 -4 35 -10 0 -5 9 -10 20 -10 11 0 20 5 20 10 0 6 -7 10 -16 10
-10 0 -32 16 -51 35 -37 38 -49 41 -75 21z m52 -16 c0 -5 -4 -10 -10 -10 -5 0
-10 5 -10 10 0 6 5 10 10 10 6 0 10 -4 10 -10z"/>
<path d="M2660 3140 c0 -5 5 -10 11 -10 5 0 7 5 4 10 -3 6 -8 10 -11 10 -2 0
-4 -4 -4 -10z"/>
<path d="M1520 3116 c0 -8 6 -16 14 -19 10 -4 12 0 9 14 -6 22 -23 26 -23 5z"/>
<path d="M1596 3118 c7 -11 34 -10 34 1 0 6 -9 9 -19 8 -11 0 -17 -5 -15 -9z"/>
<path d="M1710 3095 c0 -8 -7 -15 -15 -15 -8 0 -15 -4 -15 -10 0 -15 19 -12
36 4 16 17 19 36 4 36 -5 0 -10 -7 -10 -15z"/>
<path d="M1470 3079 c0 -5 -6 -7 -12 -3 -10 6 -10 4 0 -7 17 -18 15 -39 -3
-39 -8 0 -15 5 -15 10 0 6 -8 10 -17 10 -17 -1 -17 -1 0 -11 10 -6 14 -15 10
-22 -13 -21 -14 -49 -2 -63 9 -11 7 -14 -10 -14 -18 0 -21 6 -21 45 0 46 -14
60 -25 25 -10 -33 -13 -130 -4 -136 5 -3 9 -20 9 -39 0 -19 5 -37 10 -40 6 -3
10 -15 10 -26 0 -10 5 -19 10 -19 6 0 10 -14 10 -31 0 -21 9 -40 25 -55 14
-13 25 -30 25 -39 0 -8 5 -15 10 -15 6 0 10 -20 10 -44 0 -34 5 -47 25 -62 14
-10 25 -27 25 -37 0 -10 7 -20 15 -23 10 -4 15 -20 15 -48 0 -30 5 -46 20 -56
11 -8 20 -18 20 -23 0 -5 7 -15 15 -23 13 -14 16 -25 18 -66 1 -24 -14 -93
-24 -110 -5 -10 -9 -24 -9 -32 0 -9 -7 -12 -18 -9 -13 3 -40 -17 -90 -66 -40
-38 -72 -75 -72 -81 0 -5 -5 -10 -11 -10 -21 0 -49 -43 -49 -75 0 -17 -3 -35
-7 -39 -11 -11 -11 -70 0 -77 5 -4 11 -30 14 -60 3 -35 11 -58 24 -70 10 -9
19 -20 19 -23 0 -11 27 -36 39 -36 6 0 11 -7 11 -15 0 -8 9 -15 19 -15 23 0
40 22 23 28 -15 5 -16 48 -2 57 7 4 1 16 -15 31 -23 21 -25 26 -11 39 17 17
36 20 36 5 0 -5 5 -10 10 -10 6 0 10 25 10 55 l0 56 35 -7 c23 -4 35 -2 35 5
0 6 7 11 15 11 8 0 15 -4 15 -10 0 -5 9 -10 20 -10 27 0 25 8 -7 36 -34 29
-43 30 -43 5 0 -10 -7 -22 -16 -25 -22 -9 -24 -8 -24 9 0 8 -7 15 -15 15 -8 0
-15 -4 -15 -10 0 -5 -7 -10 -15 -10 -8 0 -15 5 -15 10 0 6 7 10 15 10 9 0 18
7 21 15 5 13 8 13 21 -1 20 -20 30 -10 12 13 -11 15 -11 16 1 6 19 -17 30 -16
30 2 0 8 -4 15 -10 15 -5 0 -10 7 -10 15 0 8 5 15 10 15 6 0 10 -7 10 -15 0
-8 7 -15 15 -15 8 0 15 -4 15 -10 0 -5 9 -10 20 -10 11 0 20 -7 20 -15 0 -8 6
-15 14 -15 8 0 16 -6 19 -12 2 -8 8 -9 13 -4 5 5 4 11 -3 13 -7 3 -13 16 -13
29 0 13 -5 24 -11 24 -14 0 -39 25 -39 39 0 6 -7 11 -15 11 -8 0 -15 5 -15 10
0 6 5 10 11 10 14 0 39 -25 39 -39 0 -6 5 -11 11 -11 7 0 19 -8 28 -18 9 -11
26 -24 39 -31 27 -14 29 -41 3 -41 -14 0 -18 -7 -18 -27 0 -16 2 -22 4 -15 5
13 33 17 33 4 0 -9 40 -35 46 -29 10 10 -10 37 -27 37 -10 0 -19 7 -19 15 0 8
7 15 16 15 8 0 12 5 9 10 -3 6 -1 10 4 10 6 0 11 7 11 15 0 8 -9 15 -20 15
-17 0 -20 7 -20 50 0 52 -23 90 -55 90 -8 0 -15 5 -15 11 0 6 -7 17 -15 25 -8
9 -15 20 -15 25 0 5 7 9 15 9 8 0 15 5 15 10 0 6 5 10 12 10 9 0 9 -3 0 -12
-19 -19 -15 -40 7 -33 13 4 25 -2 39 -20 26 -33 32 -32 32 10 0 19 5 35 10 35
6 0 10 -4 10 -10 0 -5 7 -10 15 -10 10 0 15 11 15 35 0 19 5 35 10 35 6 0 10
-7 10 -15 0 -8 6 -15 13 -15 7 0 14 -14 15 -32 2 -18 7 -34 12 -36 6 -2 10
-12 10 -23 0 -21 42 -69 60 -69 5 0 10 7 10 15 0 8 -5 15 -11 15 -6 0 -4 6 4
14 8 8 25 13 38 10 13 -2 18 -2 12 2 -7 3 -13 17 -13 31 0 20 4 23 20 18 15
-5 20 -2 21 12 3 46 4 48 27 45 24 -4 32 22 10 31 -10 4 -9 8 2 16 13 10 13
12 0 22 -11 8 -12 12 -2 16 14 6 16 33 2 33 -5 0 -10 14 -10 31 0 27 2 30 15
19 8 -7 22 -9 31 -6 22 9 44 -17 44 -53 0 -27 3 -30 38 -33 36 -3 37 -4 34
-40 -4 -40 8 -48 38 -27 11 8 12 12 3 16 -7 2 -13 20 -13 40 0 34 -1 35 -37
31 l-38 -3 3 38 c3 32 1 37 -18 37 -39 0 -62 33 -59 86 2 31 -1 49 -9 52 -7 2
-12 22 -12 48 0 39 -3 44 -22 44 -20 0 -23 -5 -24 -45 0 -25 3 -45 8 -45 22 0
38 -31 38 -74 0 -45 -5 -51 -38 -47 -9 1 -11 -6 -7 -22 4 -15 1 -30 -9 -40 -9
-8 -16 -19 -16 -24 0 -4 -11 -20 -25 -35 -14 -15 -25 -36 -25 -48 0 -15 -6
-20 -25 -20 -14 0 -25 -4 -25 -10 0 -5 -4 -10 -10 -10 -5 0 -10 15 -10 34 0
19 -6 36 -12 39 -8 2 -9 8 -4 13 5 5 11 4 13 -3 3 -7 12 -13 22 -13 13 0 16 8
13 43 -3 37 -1 40 11 25 21 -26 27 -22 27 17 0 31 3 35 25 35 16 0 25 6 25 15
0 8 -4 15 -10 15 -14 0 -12 37 3 44 10 5 10 7 0 12 -7 3 -13 12 -13 20 0 9 4
13 9 10 5 -3 11 5 13 19 5 22 2 25 -23 25 -26 0 -29 3 -29 35 0 36 8 43 27 24
17 -17 26 7 13 32 -7 12 -10 32 -8 44 3 13 -1 34 -8 46 -11 21 -13 22 -19 7
-4 -10 -16 -18 -26 -18 -10 0 -19 -4 -19 -10 0 -5 5 -10 11 -10 21 0 4 -45
-18 -48 -24 -4 -32 -31 -10 -33 6 0 2 -5 -10 -11 -13 -6 -23 -15 -23 -20 0
-13 -40 -9 -56 6 -17 17 -18 36 -3 36 5 0 7 5 4 10 -3 6 1 10 9 10 12 0 16 10
16 35 0 31 3 35 28 35 21 0 24 2 12 10 -8 5 -10 10 -4 10 12 0 14 49 2 51 -4
1 -12 2 -17 3 -19 2 -23 16 -7 22 20 8 11 24 -15 24 -15 0 -19 -7 -19 -34 0
-28 -4 -35 -26 -40 -19 -5 -23 -10 -16 -19 16 -19 -11 -47 -45 -47 -27 0 -31
4 -35 31 -4 24 -1 33 11 36 20 5 26 50 12 86 -6 16 -21 28 -40 32 -17 4 -29
11 -25 16 3 5 -2 9 -10 9 -10 0 -16 -9 -16 -25 0 -14 5 -25 10 -25 6 0 10 -4
10 -10 0 -5 -10 -10 -23 -10 -18 0 -23 -5 -22 -22 3 -40 -5 -48 -51 -48 -44 0
-44 0 -44 35 0 24 5 35 15 35 8 0 15 -4 15 -10 0 -5 5 -10 10 -10 15 0 12 47
-2 53 -10 4 -10 6 0 6 6 1 12 6 12 12 0 14 -55 69 -70 69 -6 0 -8 5 -5 10 3 6
-1 10 -9 10 -8 0 -26 11 -40 25 -14 14 -30 25 -36 25 -14 0 -12 31 4 53 7 9
12 28 11 42 -2 16 2 25 11 25 8 0 14 5 14 10 0 6 5 10 10 10 6 0 10 -9 10 -20
0 -11 -4 -20 -10 -20 -14 0 -12 -43 3 -59 10 -11 10 -14 0 -18 -23 -8 -14 -21
17 -25 30 -5 41 6 18 15 -8 3 -6 6 5 6 11 1 17 -7 18 -21 0 -13 3 -17 6 -10 2
6 13 12 23 12 14 0 18 -6 15 -25 -1 -16 3 -25 11 -25 19 0 18 67 0 86 -8 8
-17 14 -21 14 -3 0 -17 11 -30 25 -26 25 -32 45 -15 45 6 0 10 -4 10 -10 0 -5
9 -10 20 -10 18 0 19 2 8 20 -7 11 -21 20 -30 20 -24 0 -23 17 2 25 11 3 20
11 20 16 0 5 -9 9 -20 9 -11 0 -20 7 -20 15 0 9 -9 15 -25 15 -14 0 -25 -5
-25 -11z m230 -549 c34 -33 37 -40 15 -40 -11 0 -14 -7 -9 -25 5 -22 3 -25
-20 -25 -14 0 -26 -4 -26 -10 0 -5 -7 -10 -16 -10 -8 0 -13 4 -9 9 3 5 1 12
-5 16 -5 3 -10 15 -10 27 0 15 5 19 20 15 17 -4 20 0 20 34 0 21 2 39 5 39 2
0 18 -13 35 -30z m89 -88 c9 -10 27 -23 41 -29 l25 -11 -27 -7 c-39 -10 -61 0
-53 25 4 11 2 20 -4 20 -6 0 -11 5 -11 10 0 15 11 12 29 -8z m151 -33 c0 -6 6
-17 14 -25 8 -8 19 -14 25 -14 6 0 11 -4 11 -10 0 -5 -9 -10 -21 -10 -18 0
-21 -5 -17 -34 2 -19 1 -34 -2 -34 -23 2 -31 -5 -28 -24 2 -17 -3 -24 -19 -26
-19 -3 -23 -10 -23 -38 0 -24 -5 -34 -15 -34 -9 0 -15 -9 -15 -25 0 -15 -6
-25 -14 -25 -8 0 -16 -5 -18 -11 -2 -5 -11 -7 -21 -4 -22 9 -24 65 -2 65 8 0
15 -5 15 -12 0 -6 2 -9 5 -7 2 3 -1 20 -7 37 -10 25 -10 34 0 44 9 9 12 9 12
0 0 -7 7 -12 15 -12 10 0 15 11 15 35 0 25 4 35 16 35 12 0 14 7 9 29 -6 29
14 58 23 33 9 -28 22 -8 22 33 0 25 5 45 10 45 6 0 10 -5 10 -11z m-180 -30
c0 -6 12 -8 29 -6 39 7 48 -16 16 -42 -14 -10 -25 -28 -25 -39 0 -13 -9 -22
-27 -27 -16 -4 -30 -7 -33 -8 -2 -1 -7 13 -11 31 -5 24 -3 32 7 32 9 0 14 12
14 35 0 24 5 35 15 35 8 0 15 -5 15 -11z m-80 -259 c0 -5 -4 -10 -10 -10 -5 0
-10 5 -10 10 0 6 5 10 10 10 6 0 10 -4 10 -10z m25 -40 c3 -5 1 -10 -4 -10 -6
0 -11 5 -11 10 0 6 2 10 4 10 3 0 8 -4 11 -10z m-115 -50 c0 -5 -4 -10 -10
-10 -5 0 -10 5 -10 10 0 6 5 10 10 10 6 0 10 -4 10 -10z m43 -34 c8 -21 -3
-27 -19 -11 -18 17 -18 25 0 25 8 0 16 -6 19 -14z m-43 -37 c0 -7 8 -18 18
-25 11 -9 13 -13 4 -14 -16 0 -42 24 -42 39 0 6 5 11 10 11 6 0 10 -5 10 -11z
m-5 -79 c-5 -8 -11 -8 -17 -2 -6 6 -7 16 -3 22 5 8 11 8 17 2 6 -6 7 -16 3
-22z m-165 5 c0 -8 -4 -15 -10 -15 -5 0 -10 7 -10 15 0 8 5 15 10 15 6 0 10
-7 10 -15z m100 0 c0 -8 -4 -15 -9 -15 -13 0 -22 16 -14 24 11 11 23 6 23 -9z
m30 -23 c0 -14 -11 -21 -26 -15 -8 3 -11 9 -8 14 7 11 34 12 34 1z m-116 -62
c4 0 14 -6 22 -14 16 -17 19 -56 4 -56 -5 0 -10 11 -10 25 0 14 -5 25 -11 25
-15 0 -39 26 -39 42 1 9 5 7 14 -4 7 -10 16 -18 20 -18z m19 -91 c12 -13 16
-27 11 -37 -6 -14 -8 -14 -11 5 -3 12 -13 25 -24 28 -10 4 -19 11 -19 16 0 16
25 10 43 -12z"/>
<path d="M1570 3070 c0 -5 5 -10 10 -10 6 0 10 5 10 10 0 6 -4 10 -10 10 -5 0
-10 -4 -10 -10z"/>
<path d="M1643 3052 c-7 -4 -9 -13 -4 -21 6 -10 10 -9 15 5 8 20 4 25 -11 16z"/>
<path d="M2028 3043 c6 -2 18 -2 25 0 6 3 1 5 -13 5 -14 0 -19 -2 -12 -5z"/>
<path d="M3030 3025 c0 -8 -4 -15 -10 -15 -5 0 -10 -4 -10 -10 0 -15 19 -12
36 4 18 19 18 36 -1 36 -8 0 -15 -7 -15 -15z"/>
<path d="M1570 3024 c0 -10 28 -34 39 -34 6 0 11 5 11 10 0 6 -7 10 -15 10 -8
0 -15 5 -15 10 0 6 -4 10 -10 10 -5 0 -10 -3 -10 -6z"/>
<path d="M1660 3022 c0 -11 39 -12 45 -1 4 5 -5 9 -19 9 -14 0 -26 -4 -26 -8z"/>
<path d="M1740 3026 c0 -9 30 -14 35 -6 4 6 -3 10 -14 10 -12 0 -21 -2 -21 -4z"/>
<path d="M2051 3014 c-12 -14 -12 -17 0 -25 20 -12 37 -11 19 2 -11 8 -12 12
-2 16 13 5 17 23 5 23 -5 -1 -14 -8 -22 -16z"/>
<path d="M1710 3004 c0 -12 43 -44 51 -38 16 10 9 24 -11 24 -11 0 -20 5 -20
10 0 6 -4 10 -10 10 -5 0 -10 -3 -10 -6z"/>
<path d="M1780 3000 c0 -5 5 -10 10 -10 6 0 10 5 10 10 0 6 -4 10 -10 10 -5 0
-10 -4 -10 -10z"/>
<path d="M1640 2980 c0 -5 5 -10 10 -10 6 0 10 5 10 10 0 6 -4 10 -10 10 -5 0
-10 -4 -10 -10z"/>
<path d="M1818 2973 c7 -3 16 -2 19 1 4 3 -2 6 -13 5 -11 0 -14 -3 -6 -6z"/>
<path d="M1590 2950 c0 -5 5 -10 10 -10 6 0 10 5 10 10 0 6 -4 10 -10 10 -5 0
-10 -4 -10 -10z"/>
<path d="M1660 2950 c0 -5 -7 -10 -15 -10 -8 0 -15 -4 -15 -10 0 -5 7 -10 15
-10 8 0 15 -7 15 -15 0 -8 5 -15 10 -15 6 0 10 7 10 15 0 8 -4 15 -10 15 -5 0
-10 5 -10 10 0 6 7 10 15 10 8 0 15 5 15 10 0 6 -7 10 -15 10 -8 0 -15 -4 -15
-10z"/>
<path d="M1780 2954 c0 -10 28 -34 39 -34 6 0 11 5 11 10 0 6 -7 10 -15 10 -8
0 -15 5 -15 10 0 6 -4 10 -10 10 -5 0 -10 -3 -10 -6z"/>
<path d="M1850 2950 c0 -5 5 -10 10 -10 6 0 10 5 10 10 0 6 -4 10 -10 10 -5 0
-10 -4 -10 -10z"/>
<path d="M2694 2933 c23 -22 29 -25 36 -13 7 11 4 16 -10 18 -11 2 -20 8 -20
13 0 5 -7 9 -16 9 -13 0 -10 -6 10 -27z"/>
<path d="M3135 2930 c-3 -5 1 -10 9 -10 9 0 19 0 23 -1 4 0 9 4 11 10 5 14
-35 14 -43 1z"/>
<path d="M2647 2906 c-9 -9 -20 -16 -26 -16 -20 0 -11 -16 9 -17 11 -1 20 2
20 8 0 5 7 9 15 9 18 0 20 -17 3 -23 -7 -2 -10 -8 -6 -12 4 -4 14 0 23 9 15
14 14 17 -3 36 -18 19 -21 20 -35 6z"/>
<path d="M1450 2899 c0 -5 5 -7 10 -4 6 3 10 8 10 11 0 2 -4 4 -10 4 -5 0 -10
-5 -10 -11z"/>
<path d="M2490 2900 c0 -5 5 -10 10 -10 6 0 10 5 10 10 0 6 -4 10 -10 10 -5 0
-10 -4 -10 -10z"/>
<path d="M2568 2903 c7 -3 16 -2 19 1 4 3 -2 6 -13 5 -11 0 -14 -3 -6 -6z"/>
<path d="M3217 2880 c-9 -11 -17 -29 -17 -41 0 -11 -4 -17 -10 -14 -11 7 -14
-8 -4 -18 12 -12 33 6 39 34 4 16 11 27 16 23 5 -3 9 4 9 15 0 26 -11 27 -33
1z"/>
<path d="M1805 2880 c-3 -5 -1 -10 4 -10 6 0 11 5 11 10 0 6 -2 10 -4 10 -3 0
-8 -4 -11 -10z"/>
<path d="M2440 2880 c0 -5 4 -10 9 -10 6 0 13 5 16 10 3 6 -1 10 -9 10 -9 0
-16 -4 -16 -10z"/>
<path d="M1710 2854 c0 -8 5 -12 10 -9 6 4 10 -5 10 -19 0 -14 5 -26 10 -26 6
0 10 16 10 35 0 28 -4 35 -20 35 -11 0 -20 -7 -20 -16z"/>
<path d="M2020 2860 c0 -5 5 -10 11 -10 5 0 7 5 4 10 -3 6 -8 10 -11 10 -2 0
-4 -4 -4 -10z"/>
<path d="M2470 2860 c0 -5 7 -10 16 -10 8 0 12 5 9 10 -3 6 -10 10 -16 10 -5
0 -9 -4 -9 -10z"/>
<path d="M2560 2859 c0 -5 10 -9 22 -9 12 0 18 3 14 7 -10 11 -36 12 -36 2z"/>
<path d="M2298 2853 c7 -3 16 -2 19 1 4 3 -2 6 -13 5 -11 0 -14 -3 -6 -6z"/>
<path d="M2707 2844 c-12 -12 -8 -24 8 -24 8 0 15 -4 15 -10 0 -5 6 -10 14
-10 8 0 17 -6 19 -12 3 -7 6 -3 6 10 1 14 -5 22 -15 22 -9 0 -22 7 -28 16 -6
8 -15 12 -19 8z"/>
<path d="M1855 2830 c-3 -5 -1 -10 4 -10 6 0 11 5 11 10 0 6 -2 10 -4 10 -3 0
-8 -4 -11 -10z"/>
<path d="M1896 2804 c-10 -25 -7 -34 9 -34 8 0 15 -4 15 -10 0 -5 5 -10 10
-10 6 0 10 7 10 15 0 8 -4 15 -10 15 -5 0 -10 9 -10 20 0 24 -15 27 -24 4z"/>
<path d="M2235 2810 c-3 -5 -1 -10 4 -10 6 0 11 5 11 10 0 6 -2 10 -4 10 -3 0
-8 -4 -11 -10z"/>
<path d="M2560 2810 c0 -5 5 -10 10 -10 6 0 10 5 10 10 0 6 -4 10 -10 10 -5 0
-10 -4 -10 -10z"/>
<path d="M3110 2810 c0 -5 5 -10 10 -10 6 0 10 5 10 10 0 6 -4 10 -10 10 -5 0
-10 -4 -10 -10z"/>
<path d="M2680 2786 c0 -8 5 -18 10 -21 6 -3 10 3 10 14 0 12 -4 21 -10 21 -5
0 -10 -6 -10 -14z"/>
<path d="M3160 2790 c-13 -8 -12 -10 3 -10 9 0 17 5 17 10 0 12 -1 12 -20 0z"/>
<path d="M3020 2759 c0 -5 5 -7 10 -4 6 3 10 8 10 11 0 2 -4 4 -10 4 -5 0 -10
-5 -10 -11z"/>
<path d="M3105 2760 c3 -5 10 -10 16 -10 5 0 9 5 9 10 0 6 -7 10 -16 10 -8 0
-12 -4 -9 -10z"/>
<path d="M3230 2747 c0 -8 -9 -17 -21 -20 -23 -6 -17 -27 7 -27 8 0 14 -4 14
-10 0 -5 -22 -10 -50 -10 -27 0 -50 -4 -50 -10 0 -5 15 -10 33 -10 41 0 66
-14 42 -24 -9 -3 -34 -6 -56 -6 -46 0 -51 -13 -11 -29 42 -18 82 -11 88 16 4
13 10 23 15 23 5 0 9 10 9 21 0 12 7 27 16 33 11 9 13 17 5 36 -5 14 -10 21
-10 16 -1 -5 -8 -3 -16 4 -12 10 -15 10 -15 -3z"/>
<path d="M2932 2721 c-11 -7 -10 -10 3 -15 23 -9 25 -8 25 9 0 17 -9 19 -28 6z"/>
<path d="M3015 2721 c-3 -5 -1 -12 5 -16 5 -3 10 1 10 9 0 18 -6 21 -15 7z"/>
<path d="M1995 2621 c-6 -11 9 -23 19 -14 9 9 7 23 -3 23 -6 0 -12 -4 -16 -9z"/>
<path d="M2595 2620 c-3 -5 -1 -10 4 -10 6 0 11 5 11 10 0 6 -2 10 -4 10 -3 0
-8 -4 -11 -10z"/>
<path d="M2960 2623 c0 -5 5 -15 10 -23 7 -12 12 -12 22 -2 6 6 20 12 30 12
10 0 18 5 18 10 0 6 -18 10 -40 10 -22 0 -40 -3 -40 -7z"/>
<path d="M2110 2586 c0 -24 5 -35 18 -38 17 -5 18 -2 8 33 -13 48 -26 50 -26
5z"/>
<path d="M2318 2571 c-15 -18 -15 -20 -1 -25 9 -4 18 -4 21 -1 3 3 -1 5 -9 6
-10 0 -9 3 3 7 11 4 14 12 10 19 -6 9 -12 8 -24 -6z"/>
<path d="M3063 2573 c-12 -12 -30 -17 -50 -15 -19 2 -33 -1 -33 -7 0 -6 20
-11 46 -11 27 0 43 4 39 10 -4 6 8 10 29 10 37 0 48 13 20 24 -24 9 -33 7 -51
-11z"/>
<path d="M2600 2550 c0 -5 16 -10 35 -10 19 0 35 5 35 10 0 6 -16 10 -35 10
-19 0 -35 -4 -35 -10z"/>
<path d="M2191 2524 c0 -11 3 -14 6 -6 3 7 2 16 -1 19 -3 4 -6 -2 -5 -13z"/>
<path d="M2370 2526 c0 -9 7 -16 15 -16 8 0 15 -4 15 -10 0 -5 5 -10 11 -10 6
0 9 10 7 23 -4 26 -48 38 -48 13z"/>
<path d="M3033 2512 c-17 -2 -23 -10 -23 -27 0 -13 6 -26 13 -29 16 -6 -20
-36 -45 -36 -10 0 -21 -6 -24 -14 -3 -8 -18 -16 -35 -20 -17 -3 -29 -12 -29
-21 0 -12 -13 -15 -59 -15 -33 0 -61 -4 -63 -10 -1 -5 -36 -13 -77 -16 -65 -6
-76 -5 -87 11 -13 17 -14 15 -14 -18 0 -36 1 -37 35 -37 19 0 35 5 35 10 0 6
30 10 70 10 40 0 70 4 70 10 0 6 19 10 43 10 45 0 73 12 64 27 -13 21 9 30 53
23 l45 -7 -34 -13 c-28 -11 -31 -14 -17 -22 32 -18 15 -28 -49 -28 -37 0 -65
-4 -65 -10 0 -12 -3 -12 103 -14 67 -2 87 0 87 11 0 7 -11 13 -25 13 -14 0
-25 5 -25 10 0 6 10 10 21 10 21 0 22 9 4 52 -9 22 40 57 57 40 8 -8 15 -7 24
3 24 24 17 45 -16 45 -21 0 -30 5 -30 16 0 11 8 15 28 14 48 -3 62 0 62 13 0
13 -41 17 -97 9z"/>
<path d="M2850 2500 c0 -6 -28 -10 -64 -10 -36 0 -68 -5 -71 -11 -4 -6 -22 -9
-40 -7 -39 3 -56 -9 -35 -22 23 -15 67 -12 85 6 13 13 28 15 67 11 48 -6 94 6
84 21 -2 4 16 5 40 3 27 -2 44 1 44 8 0 7 -22 11 -55 11 -30 0 -55 -4 -55 -10z"/>
<path d="M2180 2480 c0 -5 5 -10 10 -10 6 0 10 5 10 10 0 6 -4 10 -10 10 -5 0
-10 -4 -10 -10z"/>
<path d="M2206 2461 c-6 -9 64 -24 73 -16 7 8 -1 12 -36 18 -18 4 -35 3 -37
-2z"/>
<path d="M2382 2458 c5 -15 68 -24 68 -10 0 10 -32 22 -58 22 -8 0 -12 -6 -10
-12z"/>
<path d="M2520 2460 c0 -20 13 -40 26 -40 22 0 16 37 -6 43 -11 3 -20 1 -20
-3z"/>
<path d="M2913 2463 c-22 -8 -15 -43 8 -43 22 0 55 27 45 37 -9 9 -38 12 -53
6z"/>
<path d="M2256 2405 c-3 -8 -18 -15 -33 -15 -25 -1 -26 -2 -10 -14 10 -8 17
-26 17 -45 0 -25 4 -31 21 -31 29 0 49 -24 49 -59 0 -17 5 -31 10 -31 9 0 14
21 11 42 0 4 -2 21 -3 37 -2 28 -6 31 -35 31 -28 0 -33 4 -33 24 0 13 7 27 16
30 8 3 12 10 9 16 -3 5 1 10 10 10 9 0 13 5 10 10 -9 15 -32 12 -39 -5z"/>
<path d="M2525 2392 c-15 -15 0 -22 45 -22 35 0 50 4 50 13 0 9 -14 14 -45 14
-25 0 -47 -3 -50 -5z"/>
<path d="M3036 2385 c4 -8 10 -15 15 -15 5 0 9 7 9 15 0 8 -7 15 -15 15 -9 0
-12 -6 -9 -15z"/>
<path d="M2160 2379 c0 -5 5 -7 10 -4 6 3 10 8 10 11 0 2 -4 4 -10 4 -5 0 -10
-5 -10 -11z"/>
<path d="M2355 2380 c3 -5 20 -10 36 -10 28 0 30 -2 27 -32 -2 -17 2 -33 8
-35 17 -6 24 59 8 74 -15 15 -88 18 -79 3z"/>
<path d="M2280 2360 c0 -5 14 -10 30 -10 17 0 30 5 30 10 0 6 -13 10 -30 10
-16 0 -30 -4 -30 -10z"/>
<path d="M2467 2313 c-7 -12 8 -47 28 -63 15 -12 16 -10 13 26 -2 27 -8 40
-20 42 -9 2 -18 -1 -21 -5z"/>
<path d="M2923 2253 c-62 -5 -72 -23 -13 -23 22 0 40 -4 40 -10 0 -5 -12 -10
-27 -10 -34 0 -62 -17 -48 -27 18 -14 17 -36 0 -29 -9 3 -21 6 -26 6 -12 0 -7
42 6 53 6 5 2 6 -8 3 -10 -3 -36 -9 -58 -12 -22 -4 -42 -11 -45 -15 -3 -5 -25
-9 -50 -9 -24 0 -44 -4 -44 -10 0 -5 -25 -10 -55 -10 -41 0 -55 -4 -55 -14 0
-23 137 -26 163 -3 35 30 97 20 97 -17 0 -17 2 -18 10 -6 8 13 10 12 10 -3 0
-36 -70 -77 -132 -77 -24 0 -38 -5 -38 -12 0 -10 -20 -12 -74 -11 -57 2 -77
-1 -87 -13 -11 -14 -3 -15 82 -10 136 7 227 20 241 34 9 9 9 12 0 12 -7 0 -12
5 -12 10 0 6 9 10 20 10 11 0 20 -4 20 -10 0 -15 47 -12 53 3 4 9 7 9 15 -1 5
-7 19 -14 30 -15 20 -1 33 -17 15 -17 -5 0 -14 -4 -22 -9 -12 -8 -12 -12 2
-25 22 -22 37 -20 32 4 -5 24 10 26 31 5 8 -8 23 -19 32 -25 16 -9 16 -11 0
-23 -10 -8 -15 -17 -11 -20 3 -4 -8 -7 -25 -7 -18 0 -32 -4 -32 -9 0 -5 -20
-17 -45 -27 -25 -9 -45 -21 -45 -25 0 -5 -20 -9 -45 -9 -39 0 -45 3 -51 25 -3
14 -10 22 -15 19 -5 -3 -9 2 -9 10 0 9 -4 16 -10 16 -5 0 -10 -7 -10 -15 0 -8
-9 -15 -19 -15 -25 0 -32 -12 -20 -30 7 -13 9 -13 9 0 0 9 10 16 25 18 16 1
25 -3 25 -13 0 -8 7 -15 15 -15 8 0 15 -5 15 -11 0 -6 13 -9 30 -7 18 1 38 -4
50 -15 28 -24 38 -21 42 11 3 23 4 24 9 7 3 -11 -2 -33 -13 -50 -18 -29 -18
-29 -24 -7 -4 15 -14 22 -30 22 -13 0 -24 -4 -24 -10 0 -5 7 -10 15 -10 18 0
20 -19 3 -21 -7 -1 -25 -1 -40 0 -19 1 -28 -4 -28 -14 0 -9 9 -15 25 -15 14 0
25 -4 25 -10 0 -5 7 -10 15 -10 9 0 18 -7 21 -15 4 -8 12 -15 19 -15 8 0 15
-9 17 -20 5 -31 23 -29 26 3 4 31 17 34 43 11 22 -20 39 -11 32 16 -3 11 0 20
6 20 6 0 11 9 11 20 0 11 6 20 13 20 7 0 19 -9 27 -20 18 -26 30 -25 30 0 0
11 7 23 15 26 8 4 15 15 15 25 0 10 6 19 14 19 8 0 17 6 19 13 3 6 6 2 6 -10
1 -13 -3 -23 -9 -23 -5 0 -10 -7 -10 -15 0 -8 -4 -15 -10 -15 -5 0 -10 -5 -10
-11 0 -5 5 -7 10 -4 6 3 10 -3 10 -14 0 -14 -6 -21 -20 -21 -24 0 -25 -6 -3
-28 12 -12 18 -13 21 -4 2 6 15 12 28 12 14 0 22 -4 19 -10 -3 -5 -15 -10 -26
-10 -10 0 -19 -4 -19 -10 0 -5 5 -10 10 -10 6 0 10 -9 10 -19 0 -11 9 -23 21
-26 22 -7 43 5 22 12 -21 7 -15 33 7 33 22 0 27 15 8 24 -10 5 -10 7 0 12 38
17 55 121 27 158 -8 11 -15 28 -15 39 0 20 -22 47 -39 47 -6 0 -11 16 -11 35
0 28 -4 35 -20 35 -11 0 -20 7 -20 15 0 8 -9 15 -19 15 -11 0 -23 9 -26 20 -3
11 -15 20 -26 20 -14 0 -19 7 -19 25 0 26 -24 35 -34 13 -5 -10 -7 -10 -12 0
-7 15 -54 16 -54 1 0 -6 -13 -9 -30 -7 -20 2 -34 -3 -44 -17 -14 -18 -15 -18
-16 -2 0 9 5 17 10 17 6 0 10 11 10 25 0 14 5 25 10 25 6 0 10 -7 10 -15 0 -9
9 -15 25 -15 22 0 25 4 25 34 0 22 6 36 16 40 9 3 14 13 11 20 -3 8 1 17 9 20
14 5 21 38 7 34 -5 -1 -32 -3 -60 -5z m107 -223 c0 -5 -4 -10 -10 -10 -5 0
-10 5 -10 10 0 6 5 10 10 10 6 0 10 -4 10 -10z m74 -65 c3 -9 0 -15 -8 -15 -7
0 -13 7 -13 15 0 8 4 15 8 15 4 0 9 -7 13 -15z m-24 -35 c0 -5 -4 -10 -10 -10
-5 0 -10 5 -10 10 0 6 5 10 10 10 6 0 10 -4 10 -10z m50 -20 c0 -5 -4 -10 -10
-10 -5 0 -10 5 -10 10 0 6 5 10 10 10 6 0 10 -4 10 -10z m-120 -31 c0 -5 -4
-9 -10 -9 -5 0 -10 7 -10 16 0 8 5 12 10 9 6 -3 10 -10 10 -16z m55 11 c3 -5
-1 -10 -10 -10 -9 0 -13 5 -10 10 3 6 8 10 10 10 2 0 7 -4 10 -10z m135 -5 c0
-8 -4 -15 -10 -15 -5 0 -10 7 -10 15 0 8 5 15 10 15 6 0 10 -7 10 -15z m-95
-25 c-3 -5 -10 -10 -16 -10 -5 0 -9 5 -9 10 0 6 7 10 16 10 8 0 12 -4 9 -10z
m45 0 c0 -5 7 -10 15 -10 8 0 15 -4 15 -10 0 -15 -19 -12 -36 4 -16 17 -18 26
-4 26 6 0 10 -4 10 -10z m-160 -20 c0 -5 -9 -14 -19 -19 -16 -9 -18 -8 -14 9
5 20 33 29 33 10z m100 -31 c0 -5 -7 -9 -15 -9 -9 0 -15 9 -15 21 0 18 2 19
15 9 8 -7 15 -16 15 -21z m-64 -6 c-10 -10 -19 5 -10 18 6 11 8 11 12 0 2 -7
1 -15 -2 -18z m204 18 c0 -14 -18 -23 -30 -16 -6 4 -8 11 -5 16 8 12 35 12 35
0z m-270 -30 c0 -5 -6 -11 -14 -13 -22 -5 -1 -48 25 -48 27 0 20 -24 -9 -28
-15 -2 -22 2 -22 12 0 9 -4 16 -10 16 -5 0 -10 -9 -10 -20 0 -11 -4 -20 -8
-20 -5 0 -18 9 -30 20 -12 11 -26 20 -32 20 -15 0 -8 22 8 28 7 2 12 -3 12
-12 0 -28 37 -18 48 13 6 16 8 32 5 35 -4 3 3 6 15 6 12 0 22 -4 22 -9z m50
-25 c0 -7 -11 -16 -24 -18 -19 -4 -22 -1 -18 14 5 21 42 25 42 4z m70 -1 c0
-17 -2 -18 -24 -9 -23 9 -20 24 4 24 11 0 20 -7 20 -15z m120 0 c0 -8 -4 -15
-9 -15 -13 0 -22 16 -14 24 11 11 23 6 23 -9z m-20 -45 c0 -5 -7 -10 -15 -10
-8 0 -15 5 -15 10 0 6 7 10 15 10 8 0 15 -4 15 -10z"/>
<path d="M2548 2244 c-15 -14 -8 -62 8 -68 9 -4 19 -4 22 -1 3 3 0 5 -6 5 -6
0 -12 16 -14 36 -2 20 -6 32 -10 28z"/>
<path d="M2350 2205 c0 -23 2 -24 20 -13 11 7 20 18 20 25 0 7 -9 13 -20 13
-15 0 -20 -7 -20 -25z"/>
<path d="M2350 2148 c0 -4 16 -8 35 -8 29 0 35 -4 35 -21 0 -21 0 -21 24 2 14
13 22 27 20 31 -7 11 -114 6 -114 -4z"/>
<path d="M2436 2094 c-22 -16 -17 -27 12 -22 13 2 17 8 13 20 -5 14 -8 15 -25
2z"/>
<path d="M2710 2100 c0 -5 14 -10 31 -10 17 0 28 4 24 10 -3 6 -17 10 -31 10
-13 0 -24 -4 -24 -10z"/>
<path d="M2137 2084 c-3 -4 -3 -19 0 -35 4 -21 1 -30 -11 -35 -10 -4 -16 -18
-16 -40 0 -19 -4 -34 -9 -34 -19 0 -20 -31 -1 -50 11 -11 22 -20 25 -20 3 0 5
27 5 60 0 57 1 60 24 60 14 0 28 5 31 10 3 6 -1 10 -9 10 -11 0 -16 9 -16 30
0 17 5 30 13 30 8 0 7 4 -3 10 -18 11 -24 12 -33 4z"/>
<path d="M2324 2049 c3 -17 6 -38 6 -45 0 -8 4 -14 9 -14 5 0 9 20 9 45 1 35
-2 45 -15 45 -12 0 -14 -7 -9 -31z"/>
<path d="M2490 2060 c0 -15 7 -20 25 -20 30 0 33 15 6 30 -27 14 -31 13 -31
-10z"/>
<path d="M2660 2070 c0 -5 4 -10 9 -10 6 0 13 5 16 10 3 6 -1 10 -9 10 -9 0
-16 -4 -16 -10z"/>
<path d="M2365 2009 c-10 -15 1 -23 20 -15 9 3 13 10 10 16 -8 13 -22 13 -30
-1z"/>
<path d="M2850 2010 c0 -5 5 -10 10 -10 6 0 10 5 10 10 0 6 -4 10 -10 10 -5 0
-10 -4 -10 -10z"/>
<path d="M2205 1999 c4 -6 7 -26 7 -45 0 -21 5 -34 13 -34 8 0 11 8 8 21 -4
12 0 25 7 29 11 7 11 11 1 24 -15 18 -46 22 -36 5z"/>
<path d="M2687 1986 c-5 -13 1 -16 28 -16 18 0 37 5 40 10 3 6 0 10 -7 10 -7
0 -23 3 -34 6 -14 4 -23 0 -27 -10z"/>
<path d="M2870 1984 c0 -7 57 -64 64 -64 3 0 6 11 6 25 0 20 -5 25 -25 25 -14
0 -25 5 -25 10 0 6 -4 10 -10 10 -5 0 -10 -3 -10 -6z"/>
<path d="M2975 1960 c-3 -5 -1 -10 4 -10 6 0 11 5 11 10 0 6 -2 10 -4 10 -3 0
-8 -4 -11 -10z"/>
<path d="M2850 1935 c0 -10 -11 -15 -35 -15 -19 0 -35 5 -35 10 0 6 -8 10 -17
10 -14 0 -14 -3 5 -20 15 -15 34 -19 72 -19 28 1 53 6 56 10 3 5 -2 9 -10 9
-9 0 -16 7 -16 15 0 8 -4 15 -10 15 -5 0 -10 -7 -10 -15z"/>
<path d="M2275 1930 c4 -6 11 -8 16 -5 14 9 11 15 -7 15 -8 0 -12 -5 -9 -10z"/>
<path d="M2520 1930 c0 -5 5 -10 10 -10 6 0 10 5 10 10 0 6 -4 10 -10 10 -5 0
-10 -4 -10 -10z"/>
<path d="M1850 1900 c0 -10 8 -23 18 -29 16 -9 16 -10 0 -16 -19 -8 -25 -35
-7 -35 6 0 9 -10 7 -22 -2 -16 -9 -22 -20 -20 -10 2 -18 -2 -18 -8 0 -5 5 -10
10 -10 6 0 10 -7 10 -15 0 -24 17 -17 24 10 8 32 17 31 45 -1 23 -26 61 -30
69 -6 2 7 0 12 -5 11 -31 -5 -35 2 -30 47 4 37 1 47 -14 57 -11 7 -19 17 -19
24 0 7 -9 13 -20 13 -11 0 -20 5 -20 10 0 6 -7 10 -15 10 -8 0 -15 -9 -15 -20z"/>
<path d="M2040 1811 c0 -22 -5 -42 -12 -44 -10 -4 -10 -6 0 -6 6 -1 12 -8 12
-16 0 -8 5 -15 10 -15 6 0 10 -7 10 -15 0 -8 7 -15 15 -15 8 0 15 -7 15 -16 0
-8 -7 -22 -15 -30 -8 -9 -15 -22 -15 -31 0 -22 25 -10 28 15 2 12 8 22 13 22
5 0 9 11 9 25 0 14 5 25 10 25 6 0 10 5 10 10 0 6 -9 10 -21 10 -15 0 -20 6
-19 23 4 47 0 78 -10 72 -6 -3 -13 1 -16 9 -11 29 -24 16 -24 -23z"/>
<path d="M2630 1840 c0 -5 7 -10 16 -10 8 0 12 5 9 10 -3 6 -10 10 -16 10 -5
0 -9 -4 -9 -10z"/>
<path d="M2665 1810 c3 -5 8 -10 11 -10 2 0 4 5 4 10 0 6 -5 10 -11 10 -5 0
-7 -4 -4 -10z"/>
<path d="M2257 1791 c-4 -17 -3 -21 5 -13 5 5 8 16 6 23 -3 8 -7 3 -11 -10z"/>
<path d="M2495 1791 c-3 -5 -1 -12 5 -16 5 -3 10 1 10 9 0 18 -6 21 -15 7z"/>
<path d="M2750 1790 c0 -6 -27 -10 -60 -10 -33 0 -60 -4 -60 -10 0 -5 6 -10
13 -11 33 -2 62 -11 65 -19 2 -6 12 -10 22 -10 11 0 20 -10 24 -25 4 -16 13
-25 26 -25 11 0 20 -4 20 -10 0 -5 9 -10 19 -10 11 0 23 5 26 10 3 6 -1 10 -9
10 -9 0 -16 7 -16 15 0 9 -9 15 -21 15 -11 0 -27 7 -36 15 -17 18 -11 45 11
45 10 0 13 6 10 15 -7 17 -34 21 -34 5z"/>
<path d="M2248 1754 c-3 -3 -4 -14 -1 -25 6 -20 53 -28 53 -9 0 6 -4 10 -10
10 -5 0 -10 7 -10 15 0 15 -21 21 -32 9z"/>
<path d="M2490 1746 c0 -7 9 -16 20 -19 24 -6 28 18 4 27 -22 8 -24 8 -24 -8z"/>
<path d="M2564 1749 c-9 -16 2 -22 21 -11 15 8 16 10 1 15 -8 3 -18 2 -22 -4z"/>
<path d="M1624 1718 c3 -18 5 -39 5 -45 1 -7 8 -13 16 -13 10 0 15 -10 15 -30
0 -35 23 -41 40 -11 19 36 12 68 -15 75 -14 4 -25 11 -25 17 0 11 -25 39 -34
39 -3 0 -4 -15 -2 -32z"/>
<path d="M2385 1740 c3 -5 12 -7 20 -3 21 7 19 13 -6 13 -11 0 -18 -4 -14 -10z"/>
<path d="M1710 1715 c0 -8 5 -15 10 -15 6 0 10 7 10 15 0 8 -4 15 -10 15 -5 0
-10 -7 -10 -15z"/>
<path d="M1896 1715 c-3 -9 1 -18 9 -21 8 -4 15 -12 15 -20 0 -8 7 -14 15 -14
8 0 15 4 15 9 0 5 -7 16 -15 25 -8 8 -15 19 -15 25 0 16 -17 13 -24 -4z"/>
<path d="M1995 1720 c-3 -5 -1 -10 4 -10 6 0 11 5 11 10 0 6 -2 10 -4 10 -3 0
-8 -4 -11 -10z"/>
<path d="M2677 1705 c5 -22 2 -25 -21 -25 -16 0 -26 5 -26 15 0 8 -4 15 -10
15 -5 0 -10 -5 -10 -11 0 -16 26 -39 44 -39 10 0 13 -6 10 -15 -4 -8 -12 -15
-19 -15 -8 0 -20 7 -29 15 -16 17 -56 20 -56 5 0 -5 7 -10 15 -10 9 0 18 -7
21 -15 6 -15 40 -20 68 -9 10 4 16 18 16 36 0 19 4 27 12 22 6 -4 8 -3 4 4 -3
5 -1 12 5 14 6 2 2 11 -9 21 -19 17 -19 17 -15 -8z"/>
<path d="M2420 1694 c0 -8 27 -34 35 -34 4 0 15 -10 26 -22 10 -14 18 -18 19
-10 0 7 4 11 9 8 5 -4 7 3 4 13 -3 12 -17 21 -39 26 -19 3 -34 10 -34 15 0 6
-4 10 -10 10 -5 0 -10 -3 -10 -6z"/>
<path d="M3028 1693 c7 -3 16 -2 19 1 4 3 -2 6 -13 5 -11 0 -14 -3 -6 -6z"/>
<path d="M2035 1682 c-11 -8 -19 -42 -10 -42 10 0 35 28 35 39 0 13 -11 14
-25 3z"/>
<path d="M2730 1660 c0 -11 5 -20 10 -20 18 0 25 -4 46 -27 12 -13 26 -23 32
-23 6 0 13 -8 15 -17 4 -14 5 -14 6 3 1 23 -54 84 -76 84 -7 0 -13 5 -13 10 0
6 -4 10 -10 10 -5 0 -10 -9 -10 -20z"/>
<path d="M1856 1655 c4 -8 8 -15 10 -15 2 0 4 7 4 15 0 8 -4 15 -10 15 -5 0
-7 -7 -4 -15z"/>
<path d="M1500 1650 c0 -5 10 -10 23 -10 18 0 19 2 7 10 -19 13 -30 13 -30 0z"/>
<path d="M1802 1623 c2 -32 6 -37 23 -35 26 5 32 11 19 20 -6 4 -14 17 -18 30
-12 36 -27 25 -24 -15z"/>
<path d="M1900 1641 c0 -12 5 -21 10 -21 6 0 10 6 10 14 0 8 -4 18 -10 21 -5
3 -10 -3 -10 -14z"/>
<path d="M1960 1650 c-12 -8 -11 -10 8 -10 12 0 22 5 22 10 0 13 -11 13 -30 0z"/>
<path d="M2140 1645 c0 -8 5 -15 10 -15 6 0 10 7 10 15 0 8 -4 15 -10 15 -5 0
-10 -7 -10 -15z"/>
<path d="M2300 1650 c0 -5 6 -10 14 -10 8 0 18 5 21 10 3 6 -3 10 -14 10 -12
0 -21 -4 -21 -10z"/>
<path d="M2380 1650 c0 -5 14 -10 31 -10 17 0 28 4 24 10 -3 6 -17 10 -31 10
-13 0 -24 -4 -24 -10z"/>
<path d="M3060 1650 c0 -5 5 -10 10 -10 16 0 12 -70 -5 -87 -12 -12 -19 -13
-30 -3 -11 9 -15 9 -15 1 0 -6 5 -11 10 -11 15 0 12 -16 -5 -34 -22 -22 -18
-36 9 -36 18 0 25 6 28 23 2 17 11 23 36 25 17 2 32 8 32 13 0 6 5 7 10 4 6
-3 10 1 10 10 0 8 7 18 15 21 18 7 10 24 -11 24 -22 0 -44 25 -44 49 0 16 -6
21 -25 21 -14 0 -25 -4 -25 -10z"/>
<path d="M2261 1643 c-1 -7 -9 -13 -18 -14 -13 0 -11 -3 7 -10 13 -6 28 -15
31 -21 6 -9 14 -9 31 -1 23 12 23 12 -5 12 -19 1 -30 8 -37 24 -5 12 -9 16 -9
10z"/>
<path d="M2350 1615 c0 -16 6 -25 15 -25 8 0 15 -5 15 -11 0 -5 5 -7 11 -3 8
5 6 10 -5 16 -9 5 -16 18 -16 28 0 11 -4 20 -10 20 -5 0 -10 -11 -10 -25z"/>
<path d="M2532 1624 c-8 -9 -9 -14 -2 -14 6 0 8 -4 5 -10 -3 -5 0 -10 9 -10 8
0 16 -6 19 -12 3 -9 8 -10 16 -2 8 8 6 17 -11 36 -20 23 -25 24 -36 12z"/>
<path d="M2850 1630 c0 -5 5 -10 10 -10 6 0 10 5 10 10 0 6 -4 10 -10 10 -5 0
-10 -4 -10 -10z"/>
<path d="M1996 1622 c-2 -4 -1 -14 5 -22 7 -12 9 -10 9 8 0 23 -5 28 -14 14z"/>
<path d="M2173 1615 c-18 -20 -16 -25 7 -25 13 0 20 7 20 20 0 23 -10 25 -27
5z"/>
<path d="M2440 1620 c0 -5 6 -10 14 -10 8 0 16 -6 19 -12 2 -7 8 -10 12 -6 9
8 -18 38 -34 38 -6 0 -11 -4 -11 -10z"/>
<path d="M2697 1610 c5 -21 53 -30 53 -10 0 6 -7 10 -15 10 -8 0 -15 5 -15 10
0 6 -6 10 -14 10 -9 0 -12 -7 -9 -20z"/>
<path d="M1590 1599 c0 -5 -5 -7 -11 -3 -8 4 -8 0 0 -15 9 -16 8 -27 -2 -47
-12 -24 -12 -29 3 -44 9 -9 24 -20 34 -23 10 -4 20 -16 23 -28 4 -12 11 -18
20 -15 8 3 17 6 19 6 2 0 4 20 4 45 0 25 -4 45 -10 45 -5 0 -10 7 -10 15 0 13
-53 75 -65 75 -3 0 -5 -5 -5 -11z"/>
<path d="M1920 1603 c0 -5 5 -15 10 -23 8 -12 10 -11 10 8 0 12 -4 22 -10 22
-5 0 -10 -3 -10 -7z"/>
<path d="M2040 1592 c0 -12 4 -22 9 -22 10 0 9 26 -2 36 -4 4 -7 -2 -7 -14z"/>
<path d="M2210 1580 c0 -5 5 -10 11 -10 5 0 7 5 4 10 -3 6 -8 10 -11 10 -2 0
-4 -4 -4 -10z"/>
<path d="M2305 1580 c-3 -5 3 -10 14 -10 12 0 21 5 21 10 0 6 -6 10 -14 10 -8
0 -18 -4 -21 -10z"/>
<path d="M2680 1580 c0 -5 5 -10 11 -10 5 0 7 5 4 10 -3 6 -8 10 -11 10 -2 0
-4 -4 -4 -10z"/>
<path d="M2748 1573 c7 -3 16 -2 19 1 4 3 -2 6 -13 5 -11 0 -14 -3 -6 -6z"/>
<path d="M2995 1570 c3 -5 8 -10 11 -10 2 0 4 5 4 10 0 6 -5 10 -11 10 -5 0
-7 -4 -4 -10z"/>
<path d="M2140 1555 c0 -8 4 -15 8 -15 5 0 9 7 9 15 0 8 -4 15 -9 15 -4 0 -8
-7 -8 -15z"/>
<path d="M2257 1546 c-3 -8 -2 -18 4 -22 16 -9 22 2 11 21 -8 15 -10 16 -15 1z"/>
<path d="M2495 1550 c3 -5 12 -7 20 -3 21 7 19 13 -6 13 -11 0 -18 -4 -14 -10z"/>
<path d="M1750 1486 c0 -19 -5 -36 -11 -38 -7 -2 -11 -43 -10 -121 1 -75 -2
-117 -9 -117 -5 0 -10 -6 -10 -14 0 -7 -7 -19 -15 -26 -11 -9 -15 -35 -15
-101 0 -64 -3 -89 -12 -89 -9 0 -8 -4 2 -10 10 -6 11 -10 3 -10 -8 0 -13 -15
-13 -41 0 -32 -6 -45 -26 -61 -20 -16 -23 -23 -12 -29 10 -6 10 -11 0 -21 -8
-8 -12 -45 -12 -108 0 -82 -3 -99 -20 -118 -11 -12 -20 -34 -20 -49 0 -38 -9
-49 -47 -58 -21 -4 -33 -13 -33 -23 0 -10 -9 -23 -20 -30 -11 -7 -20 -19 -20
-27 0 -8 -4 -15 -9 -15 -5 0 -13 -10 -17 -22 -4 -13 -15 -30 -25 -39 -11 -9
-19 -21 -19 -27 0 -6 -7 -17 -15 -26 -19 -19 -23 -153 -5 -186 9 -16 9 -25 1
-33 -6 -6 -11 -19 -11 -29 0 -16 12 -18 136 -18 124 0 135 2 132 18 -2 9 -10
16 -16 15 -7 -2 -12 6 -12 17 0 31 15 24 30 -15 11 -27 19 -35 40 -35 25 0 25
0 28 93 2 50 7 96 13 102 13 13 11 43 -3 48 -7 2 -10 8 -6 12 4 4 14 2 23 -5
11 -9 15 -34 15 -98 0 -103 15 -152 46 -152 17 0 23 8 28 37 3 21 6 52 6 68 1
28 19 65 34 65 3 0 6 -29 6 -65 0 -41 4 -65 11 -65 6 0 9 -9 6 -20 -5 -18 0
-20 50 -20 l54 0 -3 90 c-2 73 0 90 12 93 13 3 15 -10 12 -90 l-3 -93 28 0
c27 0 29 2 25 35 -3 23 0 35 8 35 7 0 10 -7 6 -15 -3 -9 0 -15 9 -15 8 0 15
-9 15 -20 0 -19 7 -20 195 -20 l195 0 0 31 c0 17 4 28 10 24 6 -3 10 -17 10
-31 l0 -24 355 0 355 0 0 35 c0 19 5 35 10 35 6 0 10 20 10 45 0 25 -4 45 -10
45 -5 0 -10 16 -10 36 0 35 -18 64 -39 64 -6 0 -11 19 -11 41 0 31 -6 47 -24
64 -14 13 -22 26 -19 29 4 3 -1 6 -10 6 -9 0 -17 4 -17 9 0 5 -9 12 -19 16
-11 3 -23 15 -26 25 -3 10 -15 22 -26 25 -15 5 -19 16 -19 54 0 27 -7 68 -15
91 -8 23 -15 71 -15 106 0 36 -4 64 -10 64 -6 0 -10 28 -10 65 0 36 -4 65 -9
65 -4 0 -11 37 -14 82 -3 45 -10 84 -16 86 -6 2 -11 30 -11 63 0 38 -4 58 -10
54 -6 -4 -10 27 -10 84 0 90 0 91 -25 91 -14 0 -25 -4 -25 -10 0 -5 -4 -10
-10 -10 -5 0 -10 7 -10 16 0 8 5 12 10 9 6 -3 10 1 10 9 0 9 -4 16 -10 16 -5
0 -9 6 -7 12 1 7 -8 14 -20 16 -13 2 -23 -1 -23 -7 0 -6 -8 -11 -17 -11 -13 0
-14 -3 -5 -12 17 -17 15 -58 -3 -58 -9 0 -12 6 -9 15 4 9 0 15 -9 15 -9 0 -19
5 -23 12 -5 8 -1 9 12 4 15 -5 14 -2 -6 17 -41 38 -60 41 -61 9 -3 -67 -3 -67
-38 -70 -20 -2 -37 2 -42 10 -7 10 -11 7 -15 -9 -6 -23 -20 -30 -26 -14 -1 5
-14 11 -28 13 -20 2 -26 -2 -28 -19 -3 -23 -42 -34 -42 -13 0 6 5 10 10 10 6
0 10 7 10 16 0 8 -4 12 -10 9 -6 -4 -10 8 -10 29 0 55 -18 52 -26 -4 -6 -46
-9 -50 -33 -50 -15 0 -32 5 -39 12 -6 6 -15 8 -19 4 -4 -4 -1 -11 7 -16 8 -5
11 -12 7 -16 -3 -4 -13 -1 -22 6 -10 8 -15 9 -15 1 0 -6 -7 -11 -15 -11 -18 0
-19 12 -3 28 9 9 9 12 0 12 -7 0 -12 7 -12 16 0 8 -4 12 -10 9 -5 -3 -10 1
-10 9 0 9 5 16 10 16 18 0 10 18 -10 23 -18 5 -20 0 -20 -44 l0 -49 -40 0
c-39 0 -40 1 -29 22 9 16 9 23 0 26 -6 2 -11 19 -11 38 0 19 -4 34 -10 34 -5
0 -10 -20 -10 -44 0 -31 -5 -46 -16 -50 -45 -17 -74 6 -74 59 0 51 -24 40 -28
-13 -3 -43 -22 -59 -56 -46 -12 5 -16 20 -16 71 0 57 -2 63 -15 49 -8 -8 -12
-22 -9 -30 3 -9 3 -27 0 -41 -5 -20 -12 -25 -40 -25 -36 0 -48 15 -39 49 3 12
1 21 -6 21 -6 0 -11 14 -11 31 0 17 -4 28 -10 24 -5 -3 -10 -1 -10 4 0 6 -7
11 -15 11 -10 0 -15 -10 -15 -34z m950 -146 c0 -5 -4 -10 -10 -10 -5 0 -10 5
-10 10 0 6 5 10 10 10 6 0 10 -4 10 -10z m-920 -20 c0 -5 -5 -10 -11 -10 -5 0
-7 5 -4 10 3 6 8 10 11 10 2 0 4 -4 4 -10z m210 -29 c0 -17 4 -32 9 -35 5 -4
12 -25 16 -48 8 -43 33 -83 37 -56 1 7 5 -57 9 -142 8 -195 12 -210 50 -210
10 0 19 -5 19 -11 0 -5 -4 -7 -10 -4 -6 4 -10 -42 -10 -129 0 -84 4 -136 10
-136 6 0 10 -7 10 -15 0 -8 6 -15 14 -15 8 0 17 -7 20 -15 7 -20 -23 -32 -35
-14 -7 10 -11 11 -17 2 -5 -8 -14 -6 -31 8 -20 17 -23 25 -16 57 4 20 8 66 10
102 1 36 6 80 10 98 5 20 3 32 -3 32 -6 0 -14 10 -18 22 -9 29 -24 43 -51 50
l-23 6 0 -139 c0 -77 4 -139 9 -139 5 0 12 -19 16 -43 4 -23 12 -45 17 -48 6
-4 10 -53 9 -118 -1 -72 2 -111 9 -111 5 0 10 -20 10 -45 0 -52 -11 -56 -46
-18 -23 24 -23 28 -9 50 21 32 20 217 -2 238 -8 8 -19 15 -24 15 -5 0 -9 9 -9
19 0 12 -9 21 -25 25 -25 6 -25 7 -23 121 0 76 5 115 12 115 6 0 4 5 -4 10
-10 6 -11 10 -2 10 7 0 12 13 12 31 0 17 -4 28 -10 24 -5 -3 -10 -1 -10 5 0
18 -27 40 -49 40 -19 0 -21 6 -21 69 0 38 4 71 9 73 5 2 11 40 13 86 3 68 1
82 -12 83 -10 1 -9 3 3 6 11 3 16 11 13 19 -7 18 11 18 30 0 11 -11 14 -44 14
-135 0 -67 4 -129 9 -139 6 -9 13 -34 16 -54 4 -29 11 -38 25 -38 19 0 20 8
22 123 3 216 -2 237 -51 237 -18 0 -21 6 -21 41 0 44 19 68 53 69 12 0 17 -8
17 -29z m120 -11 c0 -11 4 -20 10 -20 5 0 12 -16 16 -35 3 -19 11 -35 16 -35
5 0 7 9 3 19 -4 13 0 23 12 30 10 6 12 11 6 11 -22 0 -14 30 8 30 32 0 48 -23
50 -74 2 -25 4 -46 6 -46 2 0 17 14 34 31 28 29 29 32 12 44 -17 12 -16 14 12
20 17 4 40 11 52 17 25 12 48 7 49 -13 4 -51 1 -49 74 -49 40 0 70 4 70 10 0
17 136 12 150 -5 7 -9 9 -19 5 -23 -4 -4 -10 -1 -12 6 -6 15 -33 16 -33 2 0
-6 7 -13 15 -16 8 -4 15 -12 15 -19 0 -9 -13 -11 -46 -7 -34 3 -45 2 -40 -7 5
-7 -6 -11 -34 -11 -22 0 -56 -6 -75 -14 -40 -17 -50 -9 -47 36 1 15 -2 28 -8
28 -6 0 -10 -62 -10 -170 0 -107 4 -170 10 -170 6 0 10 -11 10 -25 0 -16 6
-25 15 -25 8 0 15 9 15 20 0 11 6 22 13 25 6 2 40 12 75 22 34 9 62 21 62 25
0 13 19 9 45 -8 21 -13 22 -19 13 -45 -11 -31 -23 -37 -32 -16 -5 10 -7 10
-12 0 -3 -7 -15 -13 -25 -13 -11 0 -30 -6 -42 -12 -12 -7 -44 -13 -72 -13
l-50 -1 -3 -122 c-1 -73 1 -122 7 -122 5 0 13 -9 16 -20 5 -16 15 -20 51 -20
25 0 43 4 40 9 -6 8 8 12 111 27 39 6 41 5 36 -15 -3 -11 -13 -21 -23 -21 -10
0 -20 -5 -22 -12 -7 -19 -226 -47 -237 -29 -5 8 -16 7 -40 -2 -28 -10 -34 -10
-45 6 -16 21 -36 22 -36 1 0 -11 -6 -15 -20 -11 -10 3 -27 -1 -37 -9 -31 -23
-60 -17 -65 13 -5 40 1 63 17 63 8 0 19 9 25 20 6 11 15 18 20 15 13 -8 15 17
12 127 -3 96 -4 99 -22 83 -17 -15 -19 -15 -30 2 -8 13 -13 14 -16 6 -9 -20
-24 -15 -24 7 0 11 -7 23 -15 26 -19 8 -19 35 0 60 10 13 14 44 15 96 0 64 2
76 15 72 8 -4 13 -10 10 -14 -3 -5 -1 -11 5 -15 6 -4 10 9 10 34 0 22 -4 43
-10 46 -5 3 -10 22 -10 40 0 25 -4 33 -14 29 -9 -3 -12 -17 -9 -43 3 -22 0
-42 -6 -46 -7 -4 -11 5 -11 25 0 23 -6 33 -25 42 -14 6 -25 15 -25 20 0 4 -7
8 -15 8 -12 0 -15 14 -15 70 0 68 1 70 25 70 18 0 25 -5 25 -20z m497 5 c0 -8
-4 -15 -9 -15 -4 0 -8 7 -8 15 0 8 4 15 8 15 5 0 9 -7 9 -15z m-103 -13 c2 -4
-5 -9 -17 -9 -17 -2 -19 0 -7 7 18 12 18 12 24 2z m140 -4 c-3 -4 -9 -8 -15
-8 -5 0 -9 4 -9 8 0 5 7 9 15 9 8 0 12 -4 9 -9z m41 2 c3 -5 -1 -10 -10 -10
-9 0 -13 5 -10 10 3 6 8 10 10 10 2 0 7 -4 10 -10z m65 6 c0 -2 -3 -11 -6 -20
-5 -12 -10 -13 -25 -5 -27 14 -24 29 6 29 14 0 25 -2 25 -4z m-900 -26 c0 -5
-4 -10 -10 -10 -5 0 -10 5 -10 10 0 6 5 10 10 10 6 0 10 -4 10 -10z m-120
-170 c0 -5 -4 -10 -10 -10 -5 0 -10 5 -10 10 0 6 5 10 10 10 6 0 10 -4 10 -10z
m2 -84 c4 -17 1 -23 -9 -19 -14 6 -18 43 -4 43 5 0 11 -11 13 -24z m1112 8
c10 -26 7 -34 -14 -34 -11 0 -20 4 -20 9 0 5 -3 16 -6 25 -4 11 0 16 14 16 11
0 23 -7 26 -16z m-1058 -48 c19 -20 18 -37 -3 -29 -18 7 -33 22 -33 36 0 12
20 8 36 -7z m968 -14 c2 -4 0 -14 -5 -22 -8 -12 -12 -12 -16 -2 -2 6 -10 9
-16 5 -7 -4 -6 1 2 10 15 18 27 22 35 9z m-912 -62 c4 0 8 -49 8 -110 0 -67 4
-110 10 -110 6 0 10 -22 10 -49 0 -37 5 -54 25 -75 24 -26 25 -33 25 -152 0
-72 4 -124 10 -124 11 0 24 -64 16 -85 -4 -11 -16 -4 -49 28 -30 29 -41 46
-35 54 5 7 10 53 11 102 1 65 5 92 14 95 14 6 15 66 1 66 -4 0 -8 6 -8 13 0 7
-9 13 -21 14 -45 4 -59 38 -59 142 0 53 3 127 7 166 5 57 8 65 16 47 6 -12 14
-22 19 -22z m-165 -185 c0 -8 -4 -12 -9 -9 -4 3 -8 9 -8 15 0 5 4 9 8 9 5 0 9
-7 9 -15z m33 -46 c0 -5 -7 -9 -15 -9 -15 0 -20 12 -9 23 8 8 24 -1 24 -14z
m1073 -46 c-7 -2 -19 -2 -25 0 -7 3 -2 5 12 5 14 0 19 -2 13 -5z m-985 -70 c2
-19 -1 -33 -7 -33 -6 0 -11 -14 -11 -31 0 -17 4 -28 10 -24 6 4 10 -17 10 -55
0 -34 4 -69 9 -78 14 -26 23 -102 13 -102 -5 0 -17 15 -27 33 -10 18 -27 38
-39 43 -18 8 -21 18 -21 84 0 41 6 90 12 110 7 19 11 41 8 48 -3 8 0 11 8 7 6
-4 4 0 -5 8 -21 16 -12 29 17 25 15 -2 21 -12 23 -35z m502 -207 c0 -88 3
-110 21 -140 20 -34 20 -36 3 -53 -12 -13 -19 -14 -22 -5 -4 14 -42 16 -42 2
0 -19 -29 -10 -50 17 -20 25 -20 27 -3 37 10 5 20 12 23 15 3 3 14 11 25 17
18 10 20 23 23 113 4 135 22 132 22 -3z m-170 69 c0 -14 -4 -25 -10 -25 -11 0
-14 33 -3 43 11 11 13 8 13 -18z m337 -85 c-2 -83 1 -113 11 -119 8 -5 12 -17
10 -27 -2 -15 -14 -20 -52 -22 -27 -2 -54 2 -59 7 -8 8 -7 11 2 11 7 0 10 4 6
9 -3 6 4 15 15 21 11 6 20 18 20 26 0 8 5 12 10 9 6 -4 10 30 10 94 0 80 3
101 14 101 11 0 14 -21 13 -110z m-842 76 c14 -13 10 -26 -7 -26 -5 0 -6 5 -3
10 3 6 -1 10 -9 10 -9 0 -16 5 -16 10 0 14 19 12 35 -4z m1248 -26 c3 -13 0
-20 -9 -20 -8 0 -14 9 -14 20 0 11 4 20 9 20 5 0 11 -9 14 -20z m-1226 -22
c-3 -8 -6 -5 -6 6 -1 11 2 17 5 13 3 -3 4 -12 1 -19z m480 -36 c-5 -50 -4 -59
13 -70 15 -9 20 -23 20 -52 0 -43 -13 -50 -51 -30 -20 11 -27 50 -9 50 6 0 10
33 10 80 0 53 4 80 11 80 8 0 10 -18 6 -58z m463 -127 c0 -8 5 -15 11 -15 6 0
9 7 5 15 -3 10 1 15 13 15 45 0 23 -36 -28 -46 -28 -6 -31 -4 -31 20 0 16 5
26 15 26 8 0 15 -7 15 -15z m-60 -10 c0 -8 -4 -15 -10 -15 -5 0 -7 7 -4 15 4
8 8 15 10 15 2 0 4 -7 4 -15z m-965 -55 c3 -5 -1 -10 -10 -10 -9 0 -13 5 -10
10 3 6 8 10 10 10 2 0 7 -4 10 -10z m-75 -30 c0 -5 -2 -10 -4 -10 -3 0 -8 5
-11 10 -3 6 -1 10 4 10 6 0 11 -4 11 -10z m100 6 c0 -3 -4 -8 -10 -11 -5 -3
-10 -1 -10 4 0 6 5 11 10 11 6 0 10 -2 10 -4z m590 -37 c0 -18 -4 -28 -10 -24
-5 3 -10 20 -10 36 0 18 4 28 10 24 6 -3 10 -20 10 -36z m140 17 c0 -8 -4 -18
-10 -21 -5 -3 -10 3 -10 14 0 12 5 21 10 21 6 0 10 -6 10 -14z"/>
<path d="M2325 1121 c-4 -7 -20 -9 -39 -5 l-33 6 -2 -109 c-1 -59 4 -129 11
-155 14 -57 38 -65 38 -14 0 35 13 55 25 36 12 -20 25 1 25 41 0 21 5 39 10
39 6 0 10 6 10 13 0 8 10 18 23 24 l22 10 -22 7 c-13 4 -23 14 -23 22 0 8 -4
14 -8 14 -5 0 -9 14 -10 31 -1 36 -16 57 -27 40z"/>
<path d="M2370 1090 c0 -11 4 -20 9 -20 5 0 7 9 4 20 -3 11 -7 20 -9 20 -2 0
-4 -9 -4 -20z"/>
<path d="M2350 777 c-8 -14 -15 -17 -17 -9 -3 6 -16 12 -29 12 -23 0 -24 -2
-26 -87 -3 -118 1 -167 12 -171 6 -2 10 -10 10 -19 0 -20 36 -7 69 25 16 16
26 38 27 61 1 20 5 44 8 54 14 41 15 47 4 47 -7 0 -7 5 1 14 7 8 11 30 9 48
-2 26 -7 32 -22 30 -10 -2 -22 1 -25 7 -4 6 -12 1 -21 -12z"/>
<path d="M2936 1504 c-9 -8 -16 -20 -16 -25 0 -5 -7 -9 -15 -9 -22 0 -18 -33
5 -53 23 -20 30 -21 30 -6 0 14 25 39 39 39 16 0 13 36 -5 54 -8 9 -17 16 -19
16 -2 0 -11 -7 -19 -16z"/>
<path d="M2850 1484 c0 -14 4 -23 10 -19 6 3 10 15 10 26 0 10 -4 19 -10 19
-5 0 -10 -12 -10 -26z"/>
<path d="M2838 1412 c-3 -10 0 -19 6 -19 6 0 19 -4 29 -8 10 -4 17 -3 17 4 0
6 -4 11 -10 11 -5 0 -10 7 -10 15 0 21 -27 19 -32 -3z"/>
<path d="M2455 1410 c3 -5 12 -10 20 -10 7 0 15 -6 18 -12 2 -7 8 -10 12 -6
10 10 -20 38 -40 38 -9 0 -13 -4 -10 -10z"/>
<path d="M2300 1385 c0 -9 5 -15 11 -13 6 2 11 8 11 13 0 5 -5 11 -11 13 -6 2
-11 -4 -11 -13z"/>
</g>
</svg>
